<?xml version="1.0" standalone="no"?><!DOCTYPE svg PUBLIC "-//W3C//DTD SVG 1.1//EN" "http://www.w3.org/Graphics/SVG/1.1/DTD/svg11.dtd"><svg class="icon" width="200px" height="200.00px" viewBox="0 0 1024 1024" version="1.1" xmlns="http://www.w3.org/2000/svg"><path d="M512.011768 79.944773c-238.823294 0-433.103092 194.278775-433.103092 433.078533 0 238.799758 194.279798 433.078533 433.103092 433.078533 238.776222 0 433.080579-194.278775 433.080579-433.078533C945.091324 274.223548 750.786966 79.944773 512.011768 79.944773zM512.011768 890.402259c-208.104665 0-377.378953-169.298847-377.378953-377.378953 0-208.081129 169.273265-377.379976 377.378953-377.379976 208.058616 0 377.357464 169.298847 377.357464 377.379976C889.368208 721.103412 720.070384 890.402259 512.011768 890.402259z"  /><path d="M558.389028 504.21878l-12.540617-3.166109c-14.815427-3.808746-28.14706-7.049556-40.117696-9.942443-66.038042-15.97995-88.24788-21.369703-88.24788-55.69958 0-43.011606 47.807842-65.890686 82.311681-65.890686 56.688093 0 98.215906 22.952758 105.785302 58.495252l1.013073 2.149966 0.099261 0c2.746554 8.756431 10.56052 14.693654 19.687388 14.693654 11.624758 0 21.072945-9.448186 21.072945-21.074991 0-3.263323-0.938372-6.52767-2.62171-9.422603-12.117992-46.324048-48.623417-73.876568-108.429525-81.84096l-0.446162 0-0.940418-0.346901-6.230911-0.494257 0.246617-40.859593-0.174985-2.523473-0.097214 0c-1.11438-7.54279-7.593955-13.355169-15.46011-13.355169-7.763824 0-14.195304 5.713119-15.334243 13.355169l-0.222057 41.74987-12.984732 1.335415c-53.225225 5.465478-115.429962 36.234249-115.429962 104.96768 0 65.271586 51.074236 84.166935 107.958804 99.180883 8.534374 2.275833 17.018605 4.377704 25.377994 6.40692 50.90232 12.489452 103.582123 25.375947 103.582123 73.357751 0 48.701189-50.083675 61.71048-92.080162 64.083527-64.653509 3.412726-104.795764-21.369703-115.37982-71.576175l-0.595564-1.483794c-1.880837-9.894348-10.338463-17.164938-20.404726-17.164938-9.967002 0-18.426675 7.123234-20.35663 16.918321l-0.789992 0.097214 0.097214 4.007267c0 2.844791 0.644683 5.688559 1.880837 8.482185 10.338463 58.100256 53.969169 94.185103 122.973776 101.654214l12.911054 1.412163 0 38.385239 0.544399 2.52245 0.393973 0c1.755993 7.493671 8.312316 12.911054 16.07614 12.911054 7.819083 0 14.346753-5.417383 16.101723-12.911054l0.667196 0L528.285406 721.771631l13.108552-1.236154c75.53637-7.124258 120.649847-50.208519 120.649847-115.256C662.04483 529.644869 592.02408 512.478907 558.389028 504.21878z"  /></svg>