<?xml version="1.0" standalone="no"?><!DOCTYPE svg PUBLIC "-//W3C//DTD SVG 1.1//EN" "http://www.w3.org/Graphics/SVG/1.1/DTD/svg11.dtd"><svg class="icon" width="200px" height="200.00px" viewBox="0 0 1024 1024" version="1.1" xmlns="http://www.w3.org/2000/svg"><path d="M552.011784 270.835382l0-8.931416c0-11.792581-9.622148-21.425985-21.463848-21.425985-11.791557 0-21.416775 9.634428-21.416775 21.425985l0 8.53642C300.7676 284.847513 292.479843 510.813988 292.381605 513.134847c-0.147356 9.94142 6.535857 18.60166 16.232706 21.116947 9.522887 2.296299 19.735483-2.26867 24.323988-10.95347 0.124843-0.245593 12.633738-24.028253 36.71111-24.028253 23.312962 0 33.871435 22.10546 34.292014 22.99369 3.232624 7.226588 10.558473 11.94096 19.934005 12.655228 8.534374-0.148379 16.23066-5.350868 19.48989-13.295817 0.097214-0.223081 9.620102-22.353101 34.044374-22.353101 18.797112 0 28.247344 12.878309 31.723515 19.195178L509.133208 689.994903c0 14.285355-10.80509 25.091468-25.113981 25.091468-6.6607 0-28.41926-2.025123-28.41926-28.41926 0-11.792581-9.620102-21.413706-21.412682-21.413706-11.841699 0-21.464871 9.619078-21.464871 21.413706 0 41.296545 29.999245 71.297836 71.296813 71.297836 38.117133 0 67.992557-29.850865 67.992557-67.967998L552.011784 518.661723c3.699252-6.364965 13.790074-19.391652 33.700543-19.391652 23.484877 0 30.715559 18.651802 31.43085 20.699438 2.759857 8.634658 10.755971 14.58109 20.526499 14.875802 8.806573 0 16.84976-5.600555 20.056801-13.964036 0.816598-2.196015 8.855692-21.612227 32.341592-21.612227 24.472368 0 34.292014 21.512966 34.685987 22.353101 3.801583 9.374508 13.419637 14.901385 24.028253 12.927427 9.993608-2.0241 17.268292-10.856255 17.268292-21.044292 0-75.219145-22.127973-134.995577-65.720817-177.674609C650.743436 287.339264 587.216587 274.214339 552.011784 270.835382zM690.067047 456.367959c-20.47738 0-38.089503 6.710842-52.251038 19.958564-10.31288-9.546424-27.236318-19.958564-52.104705-19.958564-21.017686 0-39.916105 7.327896-54.866608 21.143553-14.530948-13.815657-32.936133-21.143553-53.436026-21.143553-20.723997 0-39.373753 7.40055-54.175877 21.488407-14.975063-14.087856-33.453926-21.488407-53.584406-21.488407-8.979512 0-17.71343 1.457188-26.027793 4.39203 4.54041-17.491373 10.583033-33.921577 18.011212-48.90892 32.686447-65.856917 89.528036-99.237165 168.595836-99.347682 0.122797 0.036839 0.666172 0.110517 1.62808 0.149403 20.204158 0.554632 89.873913 6.118348 138.696876 54.064336 24.597211 24.140817 40.707121 55.977919 48.031946 94.659917C709.728852 458.07074 700.181405 456.367959 690.067047 456.367959z"  /><path d="M525.613554 63.295582c-238.167355 0-431.977455 193.797821-431.977455 431.977455 0 238.217497 193.810101 432.004061 431.977455 432.004061 238.21852 0 432.004061-193.785541 432.004061-432.004061C957.617615 257.093403 763.832074 63.295582 525.613554 63.295582zM525.613554 871.694175c-207.52445 0-376.394533-168.843476-376.394533-376.421138 0-207.538777 168.870082-376.395556 376.394533-376.395556 207.578686 0 376.422162 168.855756 376.422162 376.395556C902.034692 702.850699 733.191216 871.694175 525.613554 871.694175z"  /></svg>