<?xml version="1.0" standalone="no"?><!DOCTYPE svg PUBLIC "-//W3C//DTD SVG 1.1//EN" "http://www.w3.org/Graphics/SVG/1.1/DTD/svg11.dtd"><svg class="icon" width="200px" height="199.80px" viewBox="0 0 1025 1024" version="1.1" xmlns="http://www.w3.org/2000/svg"><path d="M513 938.667C277.359 938.667 86.333 747.64 86.333 512 86.333 276.359 277.36 85.333 513 85.333c235.641 0 426.667 191.026 426.667 426.667 0 235.641-191.026 426.667-426.667 426.667z m0-64c200.295 0 362.667-162.372 362.667-362.667 0-200.295-162.372-362.667-362.667-362.667-200.295 0-362.667 162.372-362.667 362.667 0 200.295 162.372 362.667 362.667 362.667z m8.207-265.68l-81.419-88.7-95.757 99.263c-12.27 12.72-32.529 13.084-45.248 0.814-12.72-12.27-13.084-32.528-0.814-45.248l119.368-123.738c12.8-13.27 34.137-13.005 46.605 0.578l81.796 89.113L682.34 404.072c12.479-12.515 32.74-12.544 45.255-0.065 12.515 12.478 12.544 32.74 0.065 45.254L567.442 609.943c-12.87 12.908-33.908 12.474-46.235-0.955z" fill="#000000" /></svg>