<?xml version="1.0" standalone="no"?><!DOCTYPE svg PUBLIC "-//W3C//DTD SVG 1.1//EN" "http://www.w3.org/Graphics/SVG/1.1/DTD/svg11.dtd"><svg class="icon" width="200px" height="200.00px" viewBox="0 0 1024 1024" version="1.1" xmlns="http://www.w3.org/2000/svg"><path d="M646.032 511.505L870.913 204.13c24.337-33.264 17.138-79.988-16.078-104.36a74.486 74.486 0 0 0-44.065-14.436H213.225c-41.177 0-74.558 33.43-74.558 74.667a74.74 74.74 0 0 0 14.415 44.13l224.88 307.375v395.162c0 17.673 14.307 32 31.954 32 17.648 0 31.954-14.327 31.954-32v-405.63a32.031 32.031 0 0 0-6.178-18.913l-231.059-315.82a10.677 10.677 0 0 1-2.059-6.304c0-5.891 4.769-10.667 10.651-10.667H810.77c2.264 0 4.469 0.723 6.295 2.063 4.745 3.481 5.773 10.156 2.297 14.908l-231.06 315.82a32.031 32.031 0 0 0-6.177 18.913v315.411c0 17.673 14.306 32 31.954 32 17.647 0 31.953-14.327 31.953-32V511.505z" fill="#000000" /></svg>